<svg width="33" height="32" viewBox="0 0 33 32" fill="none" xmlns="http://www.w3.org/2000/svg">
<path d="M24.8465 11.3449L13.0765 5.63823C5.17024 1.79823 1.92524 4.94489 5.88524 12.6116L7.08149 14.9316C7.42524 15.6116 7.42524 16.3982 7.08149 17.0782L5.88524 19.3849C1.92524 27.0516 5.15649 30.1982 13.0765 26.3582L24.8465 20.6516C30.1265 18.0916 30.1265 13.9049 24.8465 11.3449ZM20.4052 16.9982H12.9802C12.4165 16.9982 11.949 16.5449 11.949 15.9982C11.949 15.4516 12.4165 14.9982 12.9802 14.9982H20.4052C20.969 14.9982 21.4365 15.4516 21.4365 15.9982C21.4365 16.5449 20.969 16.9982 20.4052 16.9982Z" fill="#F25217"/>
</svg>
